<svg id="Capa_1" data-name="Capa 1" xmlns="http://www.w3.org/2000/svg" viewBox="0 0 203.15 138.83"><defs><style>.cls-1{fill:#94807b;}.cls-2{fill:#5f4e4a;}.cls-3{fill:#b5aaa7;}.cls-4{fill:#8b7974;}.cls-5{fill:#ededed;}.cls-6{fill:#fff;}.cls-7{fill:#9d9d9c;}.cls-8{fill:#323230;}.cls-9{fill:#d9dada;}</style></defs><polygon class="cls-1" points="69.65 59.37 67.75 59.37 65.73 59.37 63.71 59.37 61.69 59.37 61.01 59.37 61.01 60.45 69.65 60.45 69.65 59.37"/><polygon class="cls-2" points="137.85 134.64 135.4 134.64 132.96 134.64 130.51 134.64 130.1 134.64 130.1 138.17 138.73 138.17 138.73 134.64 137.85 134.64"/><polygon class="cls-2" points="114.16 34.88 114.16 37.33 114.16 39.78 114.16 42.23 114.16 43.17 121.46 43.17 121.46 34.54 114.16 34.54 114.16 34.88"/><polygon class="cls-3" points="48.41 122.6 46.1 122.6 43.79 122.6 43.74 122.6 43.74 129.53 52.38 129.53 52.38 122.6 50.71 122.6 48.41 122.6"/><polygon class="cls-3" points="13.83 122.6 11.53 122.6 9.22 122.6 9.2 122.6 9.2 129.53 17.84 129.53 17.84 122.6 16.13 122.6 13.83 122.6"/><polygon class="cls-3" points="121.46 48.3 123.16 48.3 125.61 48.3 128.06 48.3 130.1 48.3 130.1 43.17 121.46 43.17 121.46 48.3"/><polygon class="cls-3" points="121.46 25.91 114.16 25.91 114.16 27.54 114.16 29.98 114.16 32.43 114.16 34.54 121.46 34.54 121.46 25.91"/><rect class="cls-3" x="121.46" y="8.64" width="8.64" height="8.63"/><polygon class="cls-4" points="81.87 42.23 81.87 44.67 81.87 47.12 81.87 49.57 81.87 52.02 83.89 52.02 83.89 49.57 83.89 47.12 83.89 44.67 83.89 42.23 83.89 39.78 81.87 39.78 81.87 42.23"/><polygon class="cls-4" points="108.11 20.19 108.11 22.64 108.11 25.09 108.11 27.54 110.13 27.54 110.13 25.09 110.13 22.64 110.13 20.19 110.13 17.75 108.11 17.75 108.11 20.19"/><polygon class="cls-4" points="34.58 115.68 32.27 115.68 32.27 117.99 34.58 117.99 36.88 117.99 39.19 117.99 39.19 115.68 36.88 115.68 34.58 115.68"/><polygon class="cls-4" points="48.41 81.11 46.1 81.11 43.79 81.11 41.49 81.11 39.19 81.11 39.19 83.42 41.49 83.42 43.79 83.42 46.1 83.42 48.41 83.42 50.71 83.42 53.01 83.42 53.01 81.11 50.71 81.11 48.41 81.11"/><polygon class="cls-4" points="189.32 127.31 189.32 129.61 191.63 129.61 191.63 127.31 191.63 125.01 189.32 125.01 189.32 127.31"/><rect class="cls-4" x="189.32" y="99.65" width="2.31" height="2.3"/><polygon class="cls-4" points="132.96 131.77 132.96 134.64 135.4 134.64 135.4 131.77 135.4 128.89 132.96 128.89 132.96 131.77"/><polygon class="cls-4" points="150.1 85.72 150.1 88.59 150.1 91.47 150.1 94.35 150.1 97.23 150.1 100.11 150.1 102.98 150.1 105.86 150.1 108.74 150.1 111.62 150.1 114.5 150.1 117.38 150.1 120.25 150.1 123.13 150.1 126.01 150.14 126.01 150.14 125.78 150.14 125.01 150.14 124.01 150.14 123.13 150.14 122.7 150.14 122.22 150.14 120.44 150.14 120.39 150.14 120.25 150.14 118.66 150.14 118.09 150.14 117.38 150.14 116.87 150.14 115.78 150.14 115.09 150.14 114.5 150.14 113.48 150.14 113.31 150.14 111.62 150.14 111.53 150.14 111.17 150.14 109.74 150.14 108.86 150.14 108.74 150.14 107.96 150.14 106.56 150.14 106.18 150.14 105.86 150.14 104.39 150.14 104.26 150.14 102.98 150.14 102.61 150.14 101.95 150.14 100.83 150.14 100.11 150.14 99.65 150.14 99.04 150.14 97.34 150.14 97.26 150.14 97.23 150.14 95.47 150.14 95.04 150.14 94.35 150.14 93.69 150.14 92.74 150.14 91.91 150.14 91.47 150.14 90.43 150.14 90.13 150.14 88.59 150.14 88.35 150.14 88.13 150.14 86.56 150.14 85.82 150.14 85.72 150.14 84.78 150.14 83.52 150.14 83 150.14 82.84 150.1 82.84 150.1 85.72"/><polygon class="cls-4" points="132.96 71.32 132.96 74.2 135.4 74.2 135.4 71.32 135.4 68.44 132.96 68.44 132.96 71.32"/><polygon class="cls-4" points="124.85 114.1 124.85 116.37 124.85 118.65 124.85 120.92 126.04 120.92 126.04 118.65 126.04 116.37 126.04 114.1 126.04 111.82 124.85 111.82 124.85 114.1"/><polygon class="cls-4" points="116.51 109.54 116.51 111.82 117.7 111.82 117.7 109.54 117.7 107.27 116.51 107.27 116.51 109.54"/><polygon class="cls-4" points="116.51 93.61 116.51 95.89 117.7 95.89 117.7 93.61 117.7 91.33 116.51 91.33 116.51 93.61"/><polygon class="cls-5" points="93.84 93.61 95.04 93.61 95.04 91.33 93.84 91.33 93.84 91.47 93.84 93.61"/><polygon class="cls-6" points="90.71 93.23 90.71 95.68 88.55 95.68 86.39 95.68 86.39 98.12 86.39 100.57 86.39 103.02 86.39 105.47 86.39 107.91 86.39 110.37 88.55 110.37 90.71 110.37 90.71 112.81 90.71 115.27 92.88 115.27 93.79 115.27 93.79 114.5 93.79 112.81 93.79 111.62 93.79 110.37 93.79 108.74 93.79 107.91 93.79 105.86 93.79 105.47 93.79 103.02 93.79 102.98 93.79 100.57 93.79 100.11 93.79 98.12 93.79 97.23 93.79 95.68 93.79 94.35 93.79 93.23 92.88 93.23 90.71 93.23"/><polygon class="cls-6" points="79.86 29.98 79.86 32.43 79.86 34.88 81.87 34.88 83.89 34.88 85.91 34.88 87.93 34.88 87.93 32.43 87.93 29.98 87.93 27.54 87.93 25.09 87.93 22.64 87.93 20.19 87.93 17.75 87.93 15.3 87.93 12.84 87.93 10.4 87.93 7.95 85.91 7.95 83.89 7.95 81.87 7.95 79.86 7.95 79.86 10.4 79.86 12.84 77.84 12.84 75.82 12.84 75.82 15.3 75.82 17.75 75.82 20.19 75.82 22.64 75.82 25.09 75.82 27.54 75.82 29.98 77.84 29.98 79.86 29.98"/><polygon class="cls-6" points="25.36 74.19 23.05 74.19 20.75 74.19 18.44 74.19 16.13 74.19 16.13 76.51 16.13 78.81 13.83 78.81 11.53 78.81 11.53 81.11 11.53 83.42 9.22 83.42 6.92 83.42 6.92 85.72 6.92 88.03 6.92 90.33 6.92 92.64 6.92 94.94 6.92 97.25 9.22 97.25 11.53 97.25 11.53 99.55 11.53 101.85 13.83 101.85 16.13 101.85 16.13 99.55 16.13 97.25 18.44 97.25 20.75 97.25 20.75 94.94 20.75 92.64 20.75 90.33 20.75 88.03 23.05 88.03 25.36 88.03 25.36 85.72 25.36 83.42 27.66 83.42 29.97 83.42 29.97 81.11 29.97 78.81 29.97 76.51 29.97 74.19 27.66 74.19 25.36 74.19"/><polygon class="cls-7" points="191.63 101.95 189.32 101.95 187.01 101.95 184.71 101.95 184.71 104.26 184.71 106.56 184.71 108.86 184.71 111.17 182.41 111.17 180.1 111.17 180.1 113.48 180.1 115.78 177.79 115.78 175.49 115.78 175.49 118.09 175.49 120.39 173.19 120.39 170.88 120.39 170.88 122.7 170.88 125.01 173.19 125.01 175.49 125.01 175.49 127.31 175.49 129.61 177.79 129.61 180.1 129.61 182.41 129.61 184.71 129.61 184.71 127.31 184.71 125.01 187.01 125.01 189.32 125.01 189.32 122.7 189.32 120.39 191.63 120.39 193.93 120.39 193.93 118.09 193.93 115.78 193.93 113.48 193.93 111.17 193.93 108.86 193.93 106.56 193.93 104.26 193.93 101.95 191.63 101.95"/><polygon class="cls-8" points="17.84 137.4 26.47 137.4 35.1 137.4 43.74 137.4 52.38 137.4 61.01 137.4 64.78 137.4 64.78 138.83 66.94 138.83 69.1 138.83 69.65 138.83 71.26 138.83 73.42 138.83 73.42 136.6 73.42 134.38 71.26 134.38 69.1 134.38 69.1 132.14 69.1 129.91 66.94 129.91 64.78 129.91 64.78 129.53 61.01 129.53 52.38 129.53 43.74 129.53 35.1 129.53 26.47 129.53 17.84 129.53 9.2 129.53 9.2 137.4 17.84 137.4"/><polygon class="cls-8" points="121.46 0 114.16 0 114.16 0.61 112.14 0.61 110.13 0.61 108.11 0.61 106.09 0.61 104.07 0.61 102.05 0.61 100.03 0.61 98.02 0.61 96 0.61 93.98 0.61 91.96 0.61 89.94 0.61 87.93 0.61 85.91 0.61 83.89 0.61 81.87 0.61 79.86 0.61 77.84 0.61 75.82 0.61 73.8 0.61 73.8 3.06 73.8 5.51 71.78 5.51 69.76 5.51 69.76 7.95 67.75 7.95 65.73 7.95 65.73 10.4 65.73 12.84 65.73 15.3 65.73 17.75 65.73 20.19 65.73 22.64 65.73 25.09 65.73 27.54 65.73 29.98 65.73 32.43 65.73 34.88 65.73 37.33 65.73 39.78 65.73 42.23 65.73 44.67 65.73 47.12 65.73 49.57 65.73 52.02 65.73 54.47 65.73 56.92 65.73 59.37 67.75 59.37 69.65 59.37 69.65 60.45 61.01 60.45 55.32 60.45 55.32 62.67 55.32 64.98 53.01 64.98 50.71 64.98 48.41 64.98 46.1 64.98 43.79 64.98 41.49 64.98 39.19 64.98 36.88 64.98 34.58 64.98 32.27 64.98 29.97 64.98 27.66 64.98 25.36 64.98 23.05 64.98 20.75 64.98 18.44 64.98 16.13 64.98 13.83 64.98 11.53 64.98 9.22 64.98 9.22 67.28 9.22 69.59 6.92 69.59 4.61 69.59 4.61 71.89 4.61 74.19 2.31 74.19 0 74.19 0 76.51 0 78.81 0 81.11 0 83.42 0 85.72 0 88.03 0 90.33 0 92.64 0 94.94 0 97.25 0 99.55 0 101.85 0 104.16 0 106.47 0 108.77 0 111.07 0 113.37 0 115.68 0 117.99 0 120.29 0 122.6 0.56 122.6 0.56 129.53 9.2 129.53 9.2 122.6 9.22 122.6 9.22 120.29 9.22 117.99 9.22 115.68 9.22 113.37 9.22 111.07 9.22 108.77 9.22 106.47 9.22 104.16 9.22 101.85 9.22 99.55 9.22 97.25 6.92 97.25 6.92 94.94 6.92 92.64 6.92 90.33 6.92 88.03 6.92 85.72 6.92 83.42 9.22 83.42 9.22 81.11 9.22 78.81 11.53 78.81 13.83 78.81 13.83 76.51 13.83 74.19 16.13 74.19 18.44 74.19 20.75 74.19 23.05 74.19 25.36 74.19 27.66 74.19 29.97 74.19 32.27 74.19 34.58 74.19 36.88 74.19 39.19 74.19 41.49 74.19 43.79 74.19 46.1 74.19 48.41 74.19 50.71 74.19 53.01 74.19 55.32 74.19 55.32 76.51 55.32 77.72 61.01 77.72 64.78 77.72 64.78 76.09 64.78 73.64 66.94 73.64 69.1 73.64 69.1 71.19 69.1 68.75 71.26 68.75 73.42 68.75 73.42 66.3 75.59 66.3 77.75 66.3 78.28 66.3 78.28 60.45 78.28 59.37 77.84 59.37 75.82 59.37 73.8 59.37 73.8 56.92 73.8 54.47 73.8 52.02 73.8 49.57 73.8 47.12 73.8 44.67 73.8 42.23 73.8 39.78 73.8 37.33 73.8 34.88 73.8 32.43 73.8 29.98 73.8 27.54 73.8 25.09 73.8 22.64 73.8 20.19 73.8 17.75 73.8 15.3 73.8 12.84 75.82 12.84 77.84 12.84 77.84 10.4 77.84 7.95 79.86 7.95 81.87 7.95 83.89 7.95 85.91 7.95 87.93 7.95 89.94 7.95 91.96 7.95 93.98 7.95 96 7.95 98.02 7.95 100.03 7.95 102.05 7.95 104.07 7.95 106.09 7.95 108.11 7.95 110.13 7.95 112.14 7.95 114.16 7.95 114.16 8.64 121.46 8.64 130.1 8.64 130.1 0 121.46 0"/><polygon class="cls-8" points="104.07 12.84 102.05 12.84 100.03 12.84 100.03 15.3 100.03 17.75 98.02 17.75 96 17.75 96 20.19 96 22.64 96 25.09 96 27.54 93.98 27.54 91.96 27.54 91.96 29.98 91.96 32.43 91.96 34.88 89.94 34.88 87.93 34.88 87.93 37.33 87.93 39.78 85.91 39.78 83.89 39.78 83.89 42.23 83.89 44.67 83.89 47.12 83.89 49.57 83.89 52.02 85.91 52.02 87.93 52.02 89.94 52.02 91.96 52.02 93.79 52.02 93.79 51.17 93.86 51.17 93.86 51.29 93.86 51.66 93.86 52.02 94.54 52.02 95.22 52.02 95.9 52.02 96.58 52.02 97.25 52.02 97.93 52.02 98.6 52.02 99.28 52.02 99.95 52.02 100.63 52.02 101.31 52.02 101.99 52.02 102.66 52.02 103.34 52.02 104.01 52.02 104.69 52.02 105.37 52.02 106.05 52.02 106.72 52.02 107.4 52.02 108.07 52.02 108.75 52.02 109.43 52.02 110.11 52.02 110.78 52.02 111.46 52.02 112.14 52.02 112.81 52.02 113.49 52.02 114.17 52.02 114.17 51.66 114.17 51.29 114.17 51.17 115.82 51.17 118.27 51.17 120.71 51.17 123.16 51.17 125.61 51.17 125.61 48.3 123.16 48.3 121.46 48.3 121.46 43.17 114.16 43.17 114.16 42.23 114.16 39.78 114.16 37.33 114.16 34.88 114.16 34.54 114.16 32.43 114.16 29.98 114.16 27.54 112.14 27.54 110.13 27.54 108.11 27.54 108.11 25.09 108.11 22.64 108.11 20.19 108.11 17.75 106.09 17.75 104.07 17.75 104.07 15.3 104.07 12.84"/><polygon class="cls-8" points="50.71 122.6 52.38 122.6 53.01 122.6 53.01 120.29 53.01 117.99 53.01 115.68 53.01 113.37 53.01 111.07 53.01 108.77 53.01 106.47 53.01 104.16 53.01 101.85 53.01 99.55 53.01 97.25 53.01 94.94 53.01 92.64 53.01 90.33 53.01 88.03 53.01 85.72 53.01 83.42 50.71 83.42 48.41 83.42 46.1 83.42 43.79 83.42 41.49 83.42 39.19 83.42 39.19 85.72 36.88 85.72 36.88 88.03 36.88 90.33 34.58 90.33 32.27 90.33 29.97 90.33 27.66 90.33 27.66 92.64 27.66 94.94 25.36 94.94 23.05 94.94 20.75 94.94 20.75 97.25 18.44 97.25 18.44 99.55 16.13 99.55 16.13 101.85 13.83 101.85 13.83 104.16 16.13 104.16 18.44 104.16 18.44 106.47 18.44 108.77 20.75 108.77 23.05 108.77 25.36 108.77 27.66 108.77 27.66 111.07 27.66 113.37 29.97 113.37 32.27 113.37 32.27 115.68 34.58 115.68 36.88 115.68 39.19 115.68 39.19 117.99 39.19 120.29 41.49 120.29 43.79 120.29 46.1 120.29 48.41 120.29 48.41 122.6 50.71 122.6"/><polygon class="cls-8" points="200.85 81.21 199.19 81.21 199.19 77.72 199.19 69.09 190.55 69.09 181.91 69.09 173.28 69.09 167.23 69.09 167.23 68.44 167.23 65.56 164.78 65.56 162.33 65.56 159.89 65.56 157.44 65.56 154.99 65.56 152.54 65.56 150.1 65.56 147.64 65.56 145.2 65.56 142.75 65.56 142.75 62.69 142.75 59.81 140.3 59.81 137.85 59.81 137.85 56.94 137.85 54.05 137.85 51.17 137.85 48.3 138.73 48.3 138.73 43.17 138.73 34.54 138.73 25.91 138.73 17.27 138.73 8.64 130.1 8.64 130.1 17.27 130.1 25.91 130.1 34.54 130.1 43.17 130.1 48.3 130.51 48.3 130.51 51.17 130.51 54.05 130.51 56.94 130.51 59.81 130.51 62.69 130.51 65.56 130.51 68.44 132.96 68.44 135.4 68.44 135.4 71.32 135.4 74.2 137.85 74.2 140.3 74.2 142.75 74.2 145.2 74.2 147.64 74.2 150.1 74.2 152.54 74.2 154.99 74.2 157.44 74.2 159.89 74.2 162.33 74.2 164.78 74.2 167.23 74.2 167.23 77.08 167.23 77.72 173.28 77.72 181.91 77.72 190.55 77.72 190.55 81.21 191.63 81.21 193.93 81.21 193.93 83.52 193.93 85.82 193.93 88.13 193.93 90.43 193.93 92.74 193.93 95.04 193.93 97.34 193.93 99.65 193.93 101.95 193.93 104.26 193.93 106.56 193.93 108.86 193.93 111.17 193.93 113.48 193.93 115.78 193.93 118.09 193.93 120.39 193.93 122.7 193.93 125.01 191.63 125.01 191.63 127.31 191.63 129.61 189.32 129.61 187.01 129.61 184.71 129.61 182.41 129.61 180.1 129.61 177.79 129.61 175.49 129.61 173.19 129.61 170.88 129.61 168.57 129.61 167.23 129.61 167.23 128.89 167.16 128.89 167.16 129.35 166.6 129.35 166.03 129.35 165.47 129.35 164.89 129.35 164.33 129.35 163.76 129.35 163.19 129.35 162.63 129.35 162.06 129.35 161.49 129.35 160.93 129.35 160.36 129.35 159.79 129.35 159.22 129.35 158.65 129.35 158.09 129.35 157.52 129.35 156.95 129.35 156.38 129.35 155.82 129.35 155.25 129.35 154.68 129.35 154.11 129.35 153.55 129.35 152.98 129.35 152.41 129.35 151.84 129.35 151.27 129.35 150.71 129.35 150.14 129.35 150.14 128.89 150.1 128.89 147.64 128.89 145.2 128.89 142.75 128.89 140.3 128.89 137.85 128.89 135.4 128.89 135.4 131.77 135.4 134.64 137.85 134.64 138.73 134.64 138.73 138.17 147.37 138.17 150.14 138.17 150.14 138.83 152.44 138.83 154.75 138.83 157.06 138.83 159.36 138.83 161.66 138.83 163.97 138.83 166.27 138.83 168.57 138.83 170.88 138.83 173.19 138.83 175.49 138.83 177.79 138.83 180.1 138.83 182.41 138.83 184.71 138.83 187.01 138.83 189.32 138.83 191.63 138.83 193.93 138.83 193.93 136.53 193.93 134.22 196.24 134.22 198.54 134.22 200.85 134.22 203.15 134.22 203.15 131.92 203.15 129.61 203.15 127.31 203.15 125.01 203.15 122.7 203.15 120.39 203.15 118.09 203.15 115.78 203.15 113.48 203.15 111.17 203.15 108.86 203.15 106.56 203.15 104.26 203.15 101.95 203.15 99.65 203.15 97.34 203.15 95.04 203.15 92.74 203.15 90.43 203.15 88.13 203.15 85.82 203.15 83.52 203.15 81.21 200.85 81.21"/><polygon class="cls-8" points="164.89 83 164.89 81.21 164.78 81.21 164.33 81.21 163.97 81.21 163.76 81.21 163.19 81.21 162.63 81.21 162.33 81.21 162.06 81.21 161.66 81.21 161.49 81.21 160.93 81.21 160.36 81.21 159.89 81.21 159.79 81.21 159.36 81.21 159.22 81.21 158.65 81.21 158.09 81.21 157.52 81.21 157.44 81.21 157.06 81.21 156.95 81.21 156.38 81.21 155.82 81.21 155.25 81.21 154.99 81.21 154.75 81.21 154.68 81.21 154.11 81.21 153.55 81.21 152.98 81.21 152.54 81.21 152.44 81.21 152.41 81.21 151.84 81.21 151.84 83 151.84 84.78 151.84 86.56 151.84 88.35 151.84 90.13 151.84 91.91 151.84 93.69 151.84 95.47 151.84 97.26 151.84 99.04 151.84 100.83 151.84 102.61 151.84 104.39 151.84 106.18 151.84 107.96 151.84 109.74 151.84 111.53 151.84 113.31 151.84 115.09 151.84 116.87 151.84 118.66 151.84 120.44 151.84 122.22 151.84 124.01 151.84 125.78 152.41 125.78 152.98 125.78 153.55 125.78 154.11 125.78 154.68 125.78 155.25 125.78 155.82 125.78 155.82 124.01 155.82 122.22 155.82 120.44 156.38 120.44 156.95 120.44 157.52 120.44 158.09 120.44 158.65 120.44 159.22 120.44 159.79 120.44 160.36 120.44 160.93 120.44 161.49 120.44 162.06 120.44 162.63 120.44 163.19 120.44 163.76 120.44 164.33 120.44 164.89 120.44 164.89 118.66 164.89 116.87 165.47 116.87 166.03 116.87 166.6 116.87 167.16 116.87 167.16 117.38 167.23 117.38 167.23 115.78 168.57 115.78 170.88 115.78 173.19 115.78 173.19 113.48 173.19 111.17 175.49 111.17 177.79 111.17 177.79 108.86 180.1 108.86 182.41 108.86 184.71 108.86 184.71 106.56 184.71 104.26 184.71 101.95 187.01 101.95 189.32 101.95 189.32 99.65 187.01 99.65 187.01 97.34 187.01 95.04 184.71 95.04 182.41 95.04 180.1 95.04 177.79 95.04 177.79 92.74 177.79 90.43 175.49 90.43 173.19 90.43 173.19 88.13 173.19 85.82 170.88 85.82 168.57 85.82 167.23 85.82 167.23 85.72 167.16 85.72 167.16 86.56 166.6 86.56 166.03 86.56 165.47 86.56 164.89 86.56 164.89 84.78 164.89 83"/><polygon class="cls-9" points="90.71 112.81 90.71 110.37 88.55 110.37 86.39 110.37 86.39 112.81 88.55 112.81 90.71 112.81"/><polygon class="cls-9" points="86.39 100.57 84.23 100.57 82.07 100.57 82.07 103.02 84.23 103.02 86.39 103.02 86.39 100.57"/><polygon class="cls-9" points="91.96 34.88 91.96 32.43 91.96 29.98 91.96 27.54 93.98 27.54 96 27.54 96 25.09 96 22.64 96 20.19 96 17.75 98.02 17.75 100.03 17.75 100.03 15.3 100.03 12.84 102.05 12.84 104.07 12.84 104.07 15.3 104.07 17.75 106.09 17.75 108.11 17.75 110.13 17.75 110.13 20.19 110.13 22.64 110.13 25.09 110.13 27.54 112.14 27.54 114.16 27.54 114.16 25.91 121.46 25.91 121.46 34.54 121.46 43.17 130.1 43.17 130.1 34.54 130.1 25.91 130.1 17.27 121.46 17.27 121.46 8.64 114.16 8.64 114.16 7.95 112.14 7.95 110.13 7.95 108.11 7.95 106.09 7.95 104.07 7.95 102.05 7.95 100.03 7.95 98.02 7.95 96 7.95 93.98 7.95 91.96 7.95 89.94 7.95 87.93 7.95 87.93 10.4 87.93 12.84 87.93 15.3 87.93 17.75 87.93 20.19 87.93 22.64 87.93 25.09 87.93 27.54 87.93 29.98 87.93 32.43 87.93 34.88 89.94 34.88 91.96 34.88"/><polygon class="cls-9" points="79.86 10.4 79.86 7.95 77.84 7.95 77.84 10.4 77.84 12.84 79.86 12.84 79.86 10.4"/><polygon class="cls-9" points="43.79 120.29 41.49 120.29 39.19 120.29 39.19 117.99 36.88 117.99 34.58 117.99 32.27 117.99 32.27 115.68 32.27 113.37 29.97 113.37 27.66 113.37 27.66 111.07 27.66 108.77 25.36 108.77 23.05 108.77 20.75 108.77 18.44 108.77 18.44 106.47 18.44 104.16 16.13 104.16 13.83 104.16 13.83 101.85 11.53 101.85 11.53 99.55 11.53 97.25 9.22 97.25 9.22 99.55 9.22 101.85 9.22 104.16 9.22 106.47 9.22 108.77 9.22 111.07 9.22 113.37 9.22 115.68 9.22 117.99 9.22 120.29 9.22 122.6 11.53 122.6 13.83 122.6 16.13 122.6 17.84 122.6 17.84 129.53 26.47 129.53 35.1 129.53 43.74 129.53 43.74 122.6 43.79 122.6 46.1 122.6 48.41 122.6 48.41 120.29 46.1 120.29 43.79 120.29"/><rect class="cls-9" x="16.13" y="97.25" width="2.3" height="2.3"/><polygon class="cls-9" points="11.53 81.11 11.53 78.81 9.22 78.81 9.22 81.11 9.22 83.42 11.53 83.42 11.53 81.11"/><polygon class="cls-9" points="16.13 76.51 16.13 74.19 13.83 74.19 13.83 76.51 13.83 78.81 16.13 78.81 16.13 76.51"/><polygon class="cls-9" points="184.71 125.01 184.71 127.31 184.71 129.61 187.01 129.61 189.32 129.61 189.32 127.31 189.32 125.01 187.01 125.01 184.71 125.01"/><polygon class="cls-9" points="189.32 120.39 189.32 122.7 189.32 125.01 191.63 125.01 193.93 125.01 193.93 122.7 193.93 120.39 191.63 120.39 189.32 120.39"/><path class="cls-9" d="M240.86,105.75v2.31h-2.31v-2.31H234v-4.63h-9.23V96.48h-4.6V91.83h-6v-.1h-.05v.85h-2.28V87.2h-13V132h4v-5.38h9.07v-3.6h2.28v.52h.05V122h6v-4.63h4.6V115h6.92v2.32H227V122h-4.61v4.64h-4.61v4.65h4.61v4.63h-8.27v-.73h-.05v.47h-17v-.47H179.89V141H177v1.68c-18.9-.51-37.79,2.91-56.67,1.4v-2.88H116v-4.92h-4.32v-.43H99.3v-7h.64V87.1H86.12v4.63H83.81v4.64H74.58V101H67.67v-7h4.62V89.41H76.9V80.14h25.35v3.55h9.46V79.58H116V74.66h4.33V72.21h4.85v-7h-4.48V18.43h2V35.67h4.05v4.92h8.07v4.93h-6.05V57.84h11.9V57h.09v.86h20.3V57h11.44V54.09h4.9V74.36h2.45v5.79h-3.33V79.06h-1.2V76.77H162.25v6.87h-2.39V79.06H142v4.58h-1.19V83h-.07v1.47h-7.39v4.93H129V91.9h-4.33v4.93h-4.31V119h4.31v7.38H129v4.92h8.65v4.94h3.06v-1.07h.07v1.15h19.08v-4.57h8.35v-4.6H173V118h3.59v-.19h.88v-2.9h2.45v5.79h4.89v-5.79h2.44V112h4.91V97.52h-4.91V85.94h-2.44V80.15h29.37v3.54h23.33V87.2h3.38v18.55Zm-43.79,26.51V88.84h0v43.42Z" transform="translate(-46.93 -5.58)"/><polygon class="cls-8" points="123.82 130.72 101.85 130.72 79.89 130.72 63.52 130.72 63.52 138.83 66.48 138.83 88.42 138.83 110.37 138.83 132.32 138.83 151.16 138.83 151.16 130.72 145.72 130.72 123.82 130.72"/><rect class="cls-9" x="66.96" y="77.22" width="80.35" height="53.5"/><rect class="cls-9" x="93.79" y="64.77" width="36.31" height="23.26"/><rect class="cls-9" x="121.46" y="74.2" width="23.46" height="8.64"/></svg>