<svg id="Capa_1" data-name="Capa 1" xmlns="http://www.w3.org/2000/svg" viewBox="0 0 50 49.32"><defs><style>.cls-1{fill:#ce2527;}.cls-2{fill:lime;}.cls-3{fill:#006837;}.cls-4{fill:#fff;}.cls-5{fill:#d9e021;}</style></defs><rect class="cls-1" x="10.4" y="20.41" width="3.36" height="7.28" transform="translate(36.13 11.63) rotate(90)"/><rect class="cls-1" x="5.13" y="19.59" width="4.17" height="5.99" transform="translate(29.81 15.04) rotate(90)"/><rect class="cls-1" x="10.57" y="26.11" width="2.88" height="8.49"/><rect class="cls-1" x="8.97" y="32.53" width="3.58" height="6.99"/><rect class="cls-1" x="6.89" y="35.9" width="2.88" height="8.49"/><rect class="cls-1" x="5.29" y="42.33" width="3.58" height="6.99"/><rect class="cls-1" x="36.24" y="20.41" width="3.36" height="7.28" transform="translate(61.97 -14.21) rotate(90)"/><rect class="cls-1" x="40.7" y="19.59" width="4.17" height="5.99" transform="translate(65.38 -20.53) rotate(90)"/><rect class="cls-1" x="36.55" y="26.45" width="2.88" height="8.49" transform="translate(75.98 61.05) rotate(180)"/><rect class="cls-1" x="37.45" y="32.87" width="3.58" height="6.99" transform="translate(78.49 72.4) rotate(180)"/><rect class="cls-1" x="40.23" y="36.24" width="2.88" height="8.49" transform="translate(83.34 80.63) rotate(180)"/><rect class="cls-1" x="41.13" y="42.67" width="3.58" height="6.99" transform="translate(85.84 91.99) rotate(180)"/><rect class="cls-1" x="6.18" y="14.3" width="3.36" height="7.28" transform="translate(25.8 9.73) rotate(90)"/><rect class="cls-1" x="0.91" y="13.48" width="4.18" height="5.99" transform="translate(19.47 13.14) rotate(90)"/><rect class="cls-1" x="6.35" y="21.96" width="2.88" height="8.49"/><rect class="cls-1" x="4.75" y="28.38" width="3.58" height="6.99"/><rect class="cls-1" x="2.67" y="31.75" width="2.88" height="8.49"/><rect class="cls-1" x="1.07" y="38.17" width="3.58" height="6.99"/><rect class="cls-1" x="40.71" y="14.52" width="3.44" height="7.01" transform="translate(60.46 -24.74) rotate(90)"/><rect class="cls-1" x="44.97" y="13.64" width="4.28" height="5.77" transform="translate(63.64 -30.93) rotate(90)"/><rect class="cls-1" x="41.11" y="22.49" width="2.77" height="8.7" transform="translate(85 53.34) rotate(180)"/><rect class="cls-1" x="41.98" y="29.07" width="3.45" height="7.17" transform="translate(87.41 64.97) rotate(180)"/><rect class="cls-1" x="44.65" y="32.53" width="2.77" height="8.7" transform="translate(92.08 73.41) rotate(180)"/><rect class="cls-1" x="45.52" y="39.11" width="3.45" height="7.17" transform="translate(94.49 85.04) rotate(180)"/><polygon class="cls-2" points="35.42 27.33 35.42 39.73 31.88 39.73 18.12 39.73 14.58 39.73 14.58 27.33 7.64 27.33 7.64 14.96 11.03 14.96 11.03 11.08 21.67 11.08 28.33 11.08 38.97 11.08 38.97 14.96 42.36 14.96 42.36 27.33 35.42 27.33"/><polygon class="cls-3" points="7.64 23.89 7.64 27.33 14.58 27.33 14.58 39.73 35.42 39.73 35.42 27.33 42.36 27.33 42.36 23.89 7.64 23.89"/><polygon class="cls-3" points="16.66 11.42 16.66 7.73 13.4 7.73 13.4 3.98 10.19 3.98 10.19 0 13.4 0 16.81 0 16.81 3.69 20.07 3.69 20.07 7.67 20.07 11.42 16.66 11.42"/><polygon class="cls-3" points="33.34 11.42 33.34 7.73 36.6 7.73 36.6 3.98 39.81 3.98 39.81 0 36.6 0 33.19 0 33.19 3.69 29.93 3.69 29.93 7.67 29.93 11.42 33.34 11.42"/><rect class="cls-4" x="17.35" y="13.1" width="3.9" height="4.55"/><rect class="cls-4" x="28.75" y="13.1" width="3.9" height="4.55"/><rect class="cls-5" x="15.77" y="35.76" width="2.48" height="6.99"/><rect class="cls-5" x="19.76" y="35.76" width="2.48" height="6.99"/><rect class="cls-5" x="23.76" y="35.76" width="2.48" height="6.99"/><rect class="cls-5" x="27.76" y="35.76" width="2.48" height="6.99"/><rect class="cls-5" x="31.76" y="35.76" width="2.48" height="6.99"/></svg>